<?xml version="1.0" encoding="UTF-8"?>
<svg width="512px" height="512px" viewBox="0 0 512 512" version="1.1" xmlns="http://www.w3.org/2000/svg" xmlns:xlink="http://www.w3.org/1999/xlink">
    <!-- Generator: Sketch 53.2 (72643) - https://sketchapp.com -->
    <title>coronavirus</title>
    <desc>Created with Sketch.</desc>
    <g id="Page-1" stroke="none" stroke-width="1" fill="none" fill-rule="evenodd">
        <g id="coronavirus" fill-rule="nonzero">
            <g id="Group" transform="translate(53.000000, 53.000000)" fill="#C3DDFF">
                <path d="M170.774,49.27 C166.911,49.27 163.468,46.552 162.685,42.625 L156.233,10.226 C155.338,5.754 158.241,1.403 162.717,0.512 C167.233,-0.355 171.532,2.528 172.427,7 L178.879,39.399 C179.774,43.871 176.871,48.222 172.395,49.113 C171.847,49.218 171.306,49.27 170.774,49.27 Z" id="Path"></path>
                <path d="M241.661,405.645 C237.798,405.645 234.355,402.927 233.572,399 L227.12,366.601 C226.225,362.129 229.128,357.778 233.604,356.887 C238.12,356.02 242.419,358.903 243.314,363.375 L249.766,395.774 C250.661,400.246 247.758,404.597 243.282,405.488 C242.734,405.593 242.194,405.645 241.661,405.645 Z" id="Path"></path>
                <g transform="translate(0.000000, 156.000000)" id="Path">
                    <path d="M364.976,23.036 C361.113,23.036 357.67,20.318 356.887,16.387 C355.992,11.915 358.903,7.568 363.371,6.677 L395.774,0.233 C400.282,-0.626 404.597,2.249 405.484,6.725 C406.379,11.197 403.468,15.544 399,16.435 L366.597,22.879 C366.048,22.984 365.508,23.036 364.976,23.036 Z"></path>
                    <path d="M8.605,93.923 C4.742,93.923 1.299,91.205 0.516,87.274 C-0.379,82.802 2.532,78.455 7,77.564 L39.403,71.12 C43.935,70.261 48.226,73.136 49.113,77.612 C50.008,82.084 47.097,86.431 42.629,87.322 L10.226,93.766 C9.677,93.871 9.137,93.923 8.605,93.923 Z"></path>
                </g>
                <g transform="translate(29.000000, 29.000000)" id="Path">
                    <path d="M265.75,44.931 C264.169,44.931 262.581,44.479 261.169,43.54 C257.379,41.004 256.354,35.875 258.895,32.084 L277.25,4.62 C279.782,0.826 284.919,-0.178 288.702,2.342 C292.492,4.878 293.517,10.007 290.976,13.798 L272.621,41.262 C271.032,43.645 268.419,44.931 265.75,44.931 L265.75,44.931 Z"></path>
                    <path d="M63.879,347.048 C62.298,347.048 60.71,346.596 59.298,345.657 C55.508,343.121 54.483,337.992 57.024,334.201 L75.379,306.737 C77.911,302.947 83.04,301.943 86.831,304.459 C90.621,306.995 91.646,312.124 89.105,315.915 L70.75,343.379 C69.161,345.762 66.548,347.048 63.879,347.048 L63.879,347.048 Z"></path>
                    <g transform="translate(0.000000, 55.000000)">
                        <path d="M338.782,237.367 C337.209,237.367 335.613,236.915 334.201,235.976 L306.733,217.625 C302.943,215.093 301.918,209.964 304.459,206.169 C306.983,202.383 312.104,201.346 315.911,203.891 L343.379,222.242 C347.169,224.774 348.194,229.903 345.653,233.698 C344.065,236.081 341.452,237.367 338.782,237.367 L338.782,237.367 Z"></path>
                        <path d="M36.669,35.5 C35.096,35.5 33.5,35.048 32.088,34.109 L4.62,15.758 C0.83,13.226 -0.195,8.097 2.346,4.302 C4.87,0.512 9.991,-0.517 13.798,2.024 L41.266,20.375 C45.056,22.907 46.081,28.036 43.54,31.831 C41.952,34.214 39.339,35.5 36.669,35.5 L36.669,35.5 Z"></path>
                    </g>
                </g>
                <g id="Path">
                    <path d="M111.25,73.931 C108.581,73.931 105.968,72.645 104.379,70.262 L86.024,42.798 C83.484,39.008 84.508,33.879 88.298,31.342 C92.104,28.806 97.225,29.826 99.75,33.62 L118.105,61.084 C120.645,64.874 119.621,70.003 115.831,72.54 C114.419,73.48 112.823,73.931 111.25,73.931 L111.25,73.931 Z"></path>
                    <path d="M313.121,376.048 C310.452,376.048 307.839,374.762 306.25,372.379 L287.895,344.915 C285.355,341.125 286.379,335.996 290.169,333.459 C293.975,330.919 299.096,331.947 301.621,335.737 L319.976,363.201 C322.516,366.991 321.492,372.12 317.702,374.657 C316.29,375.597 314.694,376.048 313.121,376.048 L313.121,376.048 Z"></path>
                    <g transform="translate(29.000000, 84.000000)">
                        <path d="M311.331,35.5 C308.662,35.5 306.049,34.214 304.46,31.831 C301.92,28.037 302.944,22.908 306.734,20.375 L334.202,2.024 C338,-0.516 343.121,0.512 345.654,4.302 C348.194,8.096 347.17,13.225 343.38,15.758 L315.912,34.109 C314.5,35.048 312.903,35.5 311.331,35.5 L311.331,35.5 Z"></path>
                        <path d="M9.218,237.367 C6.549,237.367 3.936,236.081 2.347,233.698 C-0.193,229.904 0.831,224.775 4.621,222.242 L32.089,203.891 C35.887,201.347 41.008,202.383 43.541,206.169 C46.081,209.963 45.057,215.092 41.267,217.625 L13.799,235.976 C12.387,236.915 10.79,237.367 9.218,237.367 L9.218,237.367 Z"></path>
                    </g>
                    <g>
                        <path d="M235.226,49.27 C234.694,49.27 234.153,49.218 233.605,49.113 C229.129,48.222 226.226,43.871 227.121,39.399 L233.573,7 C234.46,2.528 238.767,-0.347 243.283,0.512 C247.759,1.403 250.662,5.754 249.767,10.226 L243.315,42.625 C242.532,46.552 239.089,49.27 235.226,49.27 Z"></path>
                        <path d="M164.339,405.645 C163.807,405.645 163.266,405.593 162.718,405.488 C158.242,404.597 155.339,400.246 156.234,395.774 L162.686,363.375 C163.573,358.903 167.88,356.028 172.396,356.887 C176.872,357.778 179.775,362.129 178.88,366.601 L172.427,399 C171.645,402.927 168.202,405.645 164.339,405.645 Z"></path>
                        <g transform="translate(0.000000, 156.000000)">
                            <path d="M397.395,93.923 C396.863,93.923 396.322,93.871 395.774,93.766 L363.371,87.322 C358.903,86.431 355.992,82.084 356.887,77.612 C357.774,73.136 362.064,70.269 366.597,71.12 L399,77.565 C403.468,78.456 406.379,82.803 405.484,87.275 C404.702,91.206 401.258,93.923 397.395,93.923 Z"></path>
                            <path d="M41.024,23.036 C40.492,23.036 39.951,22.984 39.403,22.879 L7,16.435 C2.532,15.544 -0.379,11.197 0.516,6.725 C1.403,2.249 5.685,-0.618 10.226,0.233 L42.629,6.677 C47.097,7.568 50.008,11.915 49.113,16.387 C48.331,20.319 44.887,23.036 41.024,23.036 Z"></path>
                        </g>
                    </g>
                </g>
            </g>
            <polygon id="Path" fill="#FFD064" transform="translate(72.937777, 180.203041) rotate(-67.485887) translate(-72.937777, -180.203041) " points="64.6778572 147.162862 81.1976968 147.162862 81.1976968 213.243221 64.6778572 213.243221"></polygon>
            <circle id="Oval" fill="#FFE07D" cx="34.746" cy="164.353" r="16.516"></circle>
            <polygon id="Path" fill="#FFD064" transform="translate(438.927777, 331.793041) rotate(112.514113) translate(-438.927777, -331.793041) " points="430.667857 298.752862 447.187697 298.752862 447.187697 364.833221 430.667857 364.833221"></polygon>
            <circle id="Oval" fill="#FFE07D" cx="477.254" cy="347.647" r="16.516"></circle>
            <polygon id="Path" fill="#FFD064" transform="translate(180.271952, 438.996305) rotate(-157.485887) translate(-180.271952, -438.996305) " points="172.012033 405.956126 188.531872 405.956126 188.531872 472.036484 172.012033 472.036484"></polygon>
            <circle id="Oval" fill="#FFE07D" cx="164.353" cy="477.254" r="16.516"></circle>
            <polygon id="Path" fill="#FFD064" transform="translate(331.861570, 73.007229) rotate(22.514113) translate(-331.861570, -73.007229) " points="323.60165 39.9670498 340.121489 39.9670498 340.121489 106.047408 323.60165 106.047408"></polygon>
            <circle id="Oval" fill="#FFE07D" cx="347.647" cy="34.746" r="16.516"></circle>
            <polygon id="Path" fill="#FFD064" transform="translate(72.910223, 331.732042) rotate(-112.514113) translate(-72.910223, -331.732042) " points="64.6503032 298.691862 81.1701428 298.691862 81.1701428 364.772221 64.6503032 364.772221"></polygon>
            <circle id="Oval" fill="#FFE07D" cx="34.746" cy="347.647" r="16.516"></circle>
            <polygon id="Path" fill="#FFD064" transform="translate(439.224223, 180.264041) rotate(67.485887) translate(-439.224223, -180.264041) " points="430.964303 147.223862 447.484143 147.223862 447.484143 213.304221 430.964303 213.304221"></polygon>
            <circle id="Oval" fill="#FFE07D" cx="477.254" cy="164.353" r="16.516"></circle>
            <polygon id="Path" fill="#FFD064" transform="translate(331.667047, 439.158305) rotate(157.485887) translate(-331.667047, -439.158305) " points="323.407128 406.118126 339.926967 406.118126 339.926967 472.198484 323.407128 472.198484"></polygon>
            <circle id="Oval" fill="#FFE07D" cx="347.647" cy="477.254" r="16.516"></circle>
            <polygon id="Path" fill="#FFD064" transform="translate(180.199430, 72.845229) rotate(-22.514113) translate(-180.199430, -72.845229) " points="171.939511 39.8050498 188.45935 39.8050498 188.45935 105.885408 171.939511 105.885408"></polygon>
            <circle id="Oval" fill="#FFE07D" cx="164.353" cy="34.746" r="16.516"></circle>
            <polygon id="Path" fill="#FFD064" transform="translate(115.831738, 115.856354) rotate(-45.000000) translate(-115.831738, -115.856354) " points="107.574985 82.8288418 124.08849 82.8288418 124.08849 148.883865 107.574985 148.883865"></polygon>
            <circle id="Oval" fill="#FFE07D" cx="86.659" cy="86.659" r="16.516"></circle>
            <polygon id="Path" fill="#FFD064" transform="translate(396.228030, 396.143646) rotate(135.000000) translate(-396.228030, -396.143646) " points="387.971278 363.116135 404.484783 363.116135 404.484783 429.171158 387.971278 429.171158"></polygon>
            <circle id="Oval" fill="#FFE07D" cx="425.341" cy="425.341" r="16.516"></circle>
            <polygon id="Path" fill="#FFD064" transform="translate(115.825970, 396.198646) rotate(-135.000000) translate(-115.825970, -396.198646) " points="107.569217 363.171135 124.082722 363.171135 124.082722 429.226158 107.569217 429.226158"></polygon>
            <circle id="Oval" fill="#FFE07D" cx="86.659" cy="425.341" r="16.516"></circle>
            <polygon id="Path" fill="#FFD064" transform="translate(396.114262, 115.801354) rotate(45.000000) translate(-396.114262, -115.801354) " points="387.85751 82.7738418 404.371015 82.7738418 404.371015 148.828865 387.85751 148.828865"></polygon>
            <circle id="Oval" fill="#FFE07D" cx="425.341" cy="86.659" r="16.516"></circle>
            <polygon id="Path" fill="#FFD064" transform="translate(57.806500, 256.001000) rotate(-90.000000) translate(-57.806500, -256.001000) " points="49.5485 222.9685 66.0645 222.9685 66.0645 289.0335 49.5485 289.0335"></polygon>
            <circle id="Oval" fill="#FFE07D" cx="16.516" cy="256" r="16.516"></circle>
            <polygon id="Path" fill="#FFD064" transform="translate(454.193500, 255.999000) rotate(90.000000) translate(-454.193500, -255.999000) " points="445.9355 222.9665 462.4515 222.9665 462.4515 289.0315 445.9355 289.0315"></polygon>
            <circle id="Oval" fill="#FFE07D" cx="495.484" cy="256" r="16.516"></circle>
            <polygon id="Path" fill="#FFD064" transform="translate(256.000000, 454.193500) rotate(-180.000000) translate(-256.000000, -454.193500) " points="247.742 421.161 264.258 421.161 264.258 487.226 247.742 487.226"></polygon>
            <circle id="Oval" fill="#FFE07D" cx="256" cy="495.484" r="16.516"></circle>
            <polygon id="Path" fill="#FFD064" points="247.742 24.774 264.258 24.774 264.258 90.839 247.742 90.839"></polygon>
            <circle id="Oval" fill="#FFE07D" cx="256" cy="16.516" r="16.516"></circle>
            <path d="M429.419,256 C429.419,160.223 351.777,82.581 256,82.581 C215.472,82.581 178.192,96.483 148.667,119.778 C108.417,151.536 88.5,200.751 88.5,256 C88.5,351.777 160.223,424.667 256,424.667 C311.266,424.667 360.494,403.568 392.25,363.297 C415.529,333.778 429.419,296.511 429.419,256 Z" id="Path" fill="#6236FF"></path>
            <path d="M284.903,400.516 C189.126,400.516 111.484,322.873 111.484,227.097 C111.484,186.578 125.381,149.3 148.667,119.778 C108.405,151.535 82.581,200.741 82.581,256 C82.581,351.777 160.224,429.419 256,429.419 C311.259,429.419 360.493,403.558 392.25,363.297 C362.729,386.583 325.421,400.516 284.903,400.516 Z" id="Path" fill="#3E16CD"></path>
            <circle id="Oval" fill="#FFE07D" cx="256" cy="206.452" r="16.516"></circle>
            <circle id="Oval" fill="#FFE07D" cx="256" cy="305.548" r="16.516"></circle>
            <circle id="Oval" fill="#FFE07D" cx="305.548" cy="256" r="16.516"></circle>
            <circle id="Oval" fill="#FFE07D" cx="206.452" cy="256" r="16.516"></circle>
            <path d="M208.597,149.835 C205.186,149.835 201.992,147.702 200.799,144.303 C199.299,139.997 201.565,135.287 205.872,133.779 C210.17,132.271 214.92,134.529 216.437,138.831 C217.937,143.137 215.711,147.831 211.405,149.339 L211.324,149.367 C210.419,149.681 209.5,149.835 208.597,149.835 L208.597,149.835 Z" id="Path" fill="#C3DDFF"></path>
            <path d="M370.444,216.875 C367.17,216.875 364.065,214.907 362.775,211.681 C361.081,207.443 363.146,202.641 367.38,200.943 C371.59,199.262 376.453,201.29 378.154,205.528 C379.848,209.766 377.823,214.552 373.589,216.25 L373.508,216.282 C372.508,216.681 371.468,216.875 370.444,216.875 L370.444,216.875 Z" id="Path" fill="#C3DDFF"></path>
            <path d="M141.573,311.681 C138.404,311.681 135.388,309.85 134.017,306.774 C132.17,302.605 134.041,297.726 138.211,295.875 C142.396,294.02 147.3,295.883 149.146,300.048 C151.001,304.217 149.162,309.08 144.993,310.931 L144.92,310.963 C143.831,311.452 142.694,311.681 141.573,311.681 L141.573,311.681 Z" id="Path" fill="#C3DDFF"></path>
            <path d="M303.403,378.718 C299.992,378.718 296.798,376.585 295.605,373.186 C294.105,368.88 296.371,364.17 300.678,362.662 C304.968,361.142 309.726,363.408 311.243,367.714 C312.743,372.02 310.517,376.714 306.211,378.222 L306.13,378.25 C305.226,378.565 304.306,378.718 303.403,378.718 L303.403,378.718 Z" id="Path" fill="#C3DDFF"></path>
            <path d="M141.573,216.895 C140.452,216.895 139.315,216.665 138.226,216.177 C134.057,214.326 132.186,209.447 134.032,205.278 C135.887,201.117 140.79,199.193 144.951,201.052 C149.12,202.903 151.007,207.746 149.161,211.915 L149.129,211.988 C147.758,215.065 144.742,216.895 141.573,216.895 L141.573,216.895 Z" id="Path" fill="#C3DDFF"></path>
            <path d="M303.427,149.859 C302.354,149.859 301.266,149.649 300.225,149.21 C296.015,147.44 294.048,142.597 295.814,138.391 C297.588,134.193 302.451,132.177 306.645,133.947 C310.855,135.717 312.839,140.52 311.072,144.725 L311.04,144.802 C309.71,147.96 306.645,149.859 303.427,149.859 L303.427,149.859 Z" id="Path" fill="#C3DDFF"></path>
            <path d="M208.621,378.742 C207.548,378.742 206.46,378.532 205.419,378.093 C201.209,376.323 199.242,371.48 201.008,367.274 C202.782,363.076 207.637,361.056 211.839,362.83 C216.049,364.6 218.033,369.403 216.266,373.608 L216.234,373.685 C214.903,376.843 211.839,378.742 208.621,378.742 L208.621,378.742 Z" id="Path" fill="#C3DDFF"></path>
            <path d="M370.46,311.702 C369.339,311.702 368.202,311.472 367.113,310.984 C362.944,309.133 361.073,304.254 362.919,300.085 C364.774,295.928 369.669,293.992 373.838,295.859 C378.007,297.71 379.894,302.553 378.048,306.722 L378.016,306.795 C376.645,309.871 373.629,311.702 370.46,311.702 L370.46,311.702 Z" id="Path" fill="#C3DDFF"></path>
            <g id="Group" transform="translate(115.000000, 115.000000)" fill="#FFE07D">
                <circle id="Oval" cx="141" cy="17.129" r="16.516"></circle>
                <circle id="Oval" cx="141" cy="264.871" r="16.516"></circle>
                <circle id="Oval" cx="264.871" cy="141" r="16.516"></circle>
                <circle id="Oval" cx="17.129" cy="141" r="16.516"></circle>
                <circle id="Oval" cx="228.59" cy="228.59" r="16.516"></circle>
                <circle id="Oval" cx="53.41" cy="53.41" r="16.516"></circle>
                <circle id="Oval" cx="53.41" cy="228.59" r="16.516"></circle>
                <circle id="Oval" cx="228.59" cy="53.41" r="16.516"></circle>
            </g>
            <circle id="Oval" fill="#C3DDFF" cx="206.534" cy="206.452" r="8.258"></circle>
            <circle id="Oval" fill="#C3DDFF" cx="206.534" cy="305.548" r="8.258"></circle>
            <circle id="Oval" fill="#C3DDFF" cx="305.548" cy="206.452" r="8.258"></circle>
            <circle id="Oval" fill="#C3DDFF" cx="305.548" cy="305.548" r="8.258"></circle>
        </g>
    </g>
</svg>