<?xml version="1.0" encoding="UTF-8"?>
<svg width="213px" height="212px" viewBox="0 0 213 212" version="1.1" xmlns="http://www.w3.org/2000/svg" xmlns:xlink="http://www.w3.org/1999/xlink">
    <!-- Generator: Sketch 53.2 (72643) - https://sketchapp.com -->
    <title>Path</title>
    <desc>Created with Sketch.</desc>
    <g id="Page-1" stroke="none" stroke-width="1" fill="none" fill-rule="evenodd">
        <g id="1091576-3f51b5" transform="translate(-727.000000, -6.000000)" fill="#6236FF" fill-rule="nonzero">
            <g id="Group" transform="translate(598.100000, 378.000000) scale(-1, 1) rotate(-180.000000) translate(-598.100000, -378.000000) translate(0.100000, 0.500000)">
                <path d="M828.5,744.6 C823,737.1 820.7,731.1 821.1,725.5 C821.3,721.7 821.1,720.9 820.1,721.7 C818.2,723.3 817.1,728.6 818,732 C818.8,734.8 818.7,734.9 817.3,733 C814,728.6 813.4,720.4 816.1,715.3 C816.6,714.2 816.6,713.5 816,713.5 C815.5,713.5 814.1,715.6 812.9,718.1 C811,722 810.8,723.2 811.7,726.1 C813,730.4 812.4,730.4 809.9,726.3 C807.7,722.6 807.2,714.7 809,711.2 C809.6,710 811.4,707.7 812.9,706 C814.6,704.1 817.3,698.2 820.3,689.7 C822.8,682.4 824.9,676.2 824.9,676 C824.9,675.7 824.2,675.8 823.4,676.1 C822.4,676.5 821.9,676.1 821.9,675 C821.9,673.8 821.4,673.5 819.9,674 C818.4,674.5 817.9,674.2 817.8,672.8 C817.8,671.8 814.8,676.9 811.2,684 C805.9,694.3 804.4,698.3 803.8,703.4 C802.9,712.3 798.3,717.8 790.9,719.1 L787.4,719.7 L790.5,717.7 C792.3,716.6 794.3,713.9 795.2,711.6 C797.4,706.2 797.4,702.9 795.2,707 C792.9,711.5 788.8,715.6 785,717.2 C781.3,718.8 779.6,718.3 782.8,716.6 C785,715.4 787.9,710.6 787.9,708 C787.9,707 786.9,707.6 784.9,709.9 C783.2,711.7 779.9,714.2 777.5,715.4 C772.4,717.7 760,720 758.8,718.8 C757.6,717.6 759.7,705.9 762.1,700.3 C763.2,697.7 765.7,694.1 767.6,692.5 C769.8,690.5 770.4,689.5 769.4,689.5 C766.8,689.5 762,692.4 760.8,694.6 C759.1,697.8 758.6,696.1 760.2,692.4 C761.9,688.3 766.3,684 770.3,682.5 C774.4,681 772.8,680.2 768.1,681.4 C765.6,682.1 762.9,683.9 761,686 C757.5,690 757.1,688.9 759.8,682.9 C762.3,677.4 766.9,674.3 773.3,673.8 C779.2,673.4 804.2,661.8 803.5,659.9 C803.3,659.3 803.6,658.2 804.2,657.6 C805,656.8 804.8,656.5 803.5,656.5 C802.2,656.5 801.9,656 802.4,654.5 C802.7,653.4 802.8,652.5 802.4,652.5 C801.4,652.5 777.5,660.7 775.4,661.8 C774.3,662.3 771.9,664.1 770.2,665.6 C764,670.9 755.5,671.3 749.7,666.5 L747.4,664.5 L750.7,665.6 C753.3,666.5 754.9,666.4 758.4,665.1 C760.8,664.1 763.3,662.7 764.1,661.8 C765.2,660.3 765.2,660.2 763.4,661 C762.3,661.4 759.4,662.2 756.9,662.8 C753,663.6 751.7,663.5 747.9,661.6 C744.1,659.8 743.8,659.6 746.4,659.9 C749.3,660.3 756.9,657.9 756.9,656.6 C756.9,656.3 754.6,656.2 751.8,656.4 C747.7,656.6 745.6,656.1 740.6,653.6 C737.2,651.9 732.8,649.2 730.9,647.6 L727.4,644.6 L730.3,641.6 C731.8,640 735.9,637.2 739.3,635.4 C744.1,632.8 746.6,632.1 751.1,632 C754.3,632 756.9,631.9 756.9,631.8 C756.9,630.6 749.9,628.4 747.3,628.7 C743.1,629.2 743.1,629 746.9,627 C750.2,625.3 757.5,625 761.4,626.5 C765,627.9 763.7,626 759.7,623.9 C757.6,622.8 755.1,622.4 752.3,622.8 C747.3,623.3 747.3,622.5 752.3,620.1 C758.8,617 765.6,618.4 772.4,624.4 C776.1,627.6 801.1,636.3 801.7,634.6 C801.9,634 802.7,633.5 803.4,633.5 C804.2,633.5 804.5,632.8 804.2,631.6 C803.9,630.3 804.3,629.6 805.6,629.3 C806.7,629.1 801.6,626.1 792.7,621.7 C781.2,616.1 777.1,614.5 773.6,614.5 C766.4,614.5 759.6,608.7 758.3,601.5 L757.7,598 L759.8,601.3 C762,604.8 767.2,607.5 771.1,607.4 L773.4,607.4 L771,606.4 C765.1,604 761.4,600 759.5,593.8 C758.9,592 759.4,592.2 762.2,595 C764.6,597.4 766.6,598.5 768.6,598.5 L771.4,598.4 L768.7,596.9 C763.8,594.3 759.9,585.7 758.5,574.3 L757.9,569.5 L762.3,569.5 C769.8,569.5 779.5,573.1 784,577.6 C786.5,580.1 787.9,581 787.9,579.9 C787.9,577.6 785.9,574.3 783,571.7 L780.4,569.4 L784.4,571 C789.3,573 792.3,575.7 794.4,580.2 C796.5,584.7 797.3,583.8 795.9,578.7 C795.2,576 793.5,573.5 791.1,571.5 L787.4,568.4 L790.4,569.1 C798.4,570.9 803.9,577.6 803.9,585.5 C803.9,588.5 805.6,593.1 810.3,602.8 C816.1,614.6 817,616 819.3,616 C820.8,616 821.9,615.4 821.9,614.6 C821.9,613.8 822.5,613.5 823.4,613.9 C824.2,614.2 824.9,614.1 824.9,613.7 C824.9,613.3 822.8,606.8 820.3,599.2 C817.3,590.3 814.7,584.2 812.9,582.2 C811.4,580.4 809.7,578 809,576.8 C807.2,573.3 807.7,565.4 809.9,561.8 C812.4,557.6 813,557.6 811.8,562 C811,564.8 811.2,566.4 812.7,569.9 C815.4,576 817,576.5 815.3,570.7 C813.7,565.5 814.2,559.8 816.5,556.8 C817.9,555.1 818,555.1 817.8,557.5 C817.6,562.2 817.9,564 819.7,566.2 C821.4,568.4 821.4,568.4 821.4,562.2 C821.4,555 823.9,549 829.8,542.4 L833.5,538.2 L837.1,542.6 C843.1,550 845.3,555.2 845.3,562.2 C845.4,565.7 845.5,568.5 845.6,568.5 C845.7,568.5 846.6,567.1 847.5,565.4 C848.4,563.5 848.9,560.7 848.7,558.4 C848.5,556.2 848.5,554.5 848.6,554.5 C848.7,554.5 849.5,555.8 850.4,557.5 C852.1,560.9 852.4,569.7 850.8,572.7 C848.9,576.3 850.6,575.7 852.9,572 C854.7,569.1 855,567.4 854.7,563.4 C854.4,560.7 854.3,558.5 854.5,558.5 C855.8,558.5 858.9,567.2 858.9,570.5 C858.9,575.2 857.8,577.8 853.9,582 C852,584 849.4,589.8 846,599.8 C840.5,616 840.3,616.5 842.1,614.7 C843.7,613.1 844.9,613.2 844.9,614.8 C844.9,615.6 845.9,616.1 847.2,616.1 C850.6,616 861.8,593.5 862.9,584.6 C864.1,575.6 868.1,570.9 876.4,569.1 L879.4,568.4 L876,571.1 C872.6,573.9 869.9,578.9 869.9,582.2 C870,583.4 870.7,582.7 871.8,580.5 C874.3,575.9 877.6,572.9 882.4,571 L886.4,569.4 L883.7,571.7 C880.8,574.3 878.9,577.5 878.9,580 C878.9,581.2 879.7,580.7 881.5,578.5 C885.8,573.5 895.7,569.5 904.3,569.5 L908.2,569.5 L907.7,575.8 C907,583.7 903.6,591.7 899.2,595.5 L895.8,598.5 L898.5,598.5 C900.3,598.5 902.3,597.3 904.7,594.8 C907.7,591.5 908.1,591.4 907.4,593.5 C905.8,598.9 903,602.1 896.5,605.7 C893.4,607.4 893.4,607.4 895.9,607.5 C899.5,607.5 904.6,604.5 907,601 L909.1,598 L908.4,601 C906.7,609 900.5,614.5 893.1,614.5 C889.6,614.5 885.6,616 874,621.7 C864.8,626.2 860.1,629 861.2,629.3 C862.5,629.5 862.9,630.3 862.6,631.6 C862.3,632.8 862.6,633.5 863.4,633.5 C864.1,633.5 864.9,634 865.1,634.5 C865.7,636.3 891.6,626.9 895.6,623.5 C901.9,618 908.1,617 914.9,620.5 C917.1,621.6 918.9,622.6 918.9,622.8 C918.9,622.9 916.2,623 912.9,623 C908,623 906.6,623.4 904.7,625.3 L902.4,627.6 L905.2,626.6 C909.3,625 916.5,625.3 919.9,627 C921.6,627.9 922.9,628.7 922.9,628.8 C922.9,628.9 921,628.9 918.6,628.7 C915.6,628.4 913.7,628.9 912.1,630.2 C909.8,632 909.8,632 915.6,632.1 C922.2,632.1 928.9,635.1 935.4,640.8 L939.4,644.4 L935.9,647.4 C934,649.1 929.6,651.9 926.2,653.6 C921.2,656.1 919.1,656.6 915,656.4 C912.2,656.2 909.9,656.3 909.9,656.6 C909.9,658 915.4,659.9 919.2,659.8 L923.4,659.7 L919.4,661.6 C914.5,663.9 912.6,663.9 906.3,662.1 L901.4,660.6 L904.3,663 C907.9,665.9 912.7,666.9 916.5,665.5 L919.4,664.5 L917.1,666.5 C911.2,671.4 902.7,670.9 896.3,665.3 C893.9,663.2 888.4,660.7 878.8,657.4 C864,652.2 861.7,651.7 863.7,653.7 C865.4,655.4 865.2,656.5 863.3,656.5 C862.2,656.5 861.9,657 862.3,658.1 C862.6,659 862.9,660.1 862.9,660.6 C862.9,662.4 887.7,673.5 891.7,673.5 C900,673.6 906.8,679.2 908.4,687.5 L909,691 L907,687.8 C904.6,684 901.6,681.9 897,681 C894.7,680.5 893.9,680.6 894.3,681.4 C894.7,682 895.5,682.5 896.1,682.5 C896.7,682.5 898.7,683.6 900.6,685.1 C903.9,687.6 906.1,690.9 907.3,695.5 C908,697.9 907.9,697.8 906,695.1 C903.8,691.8 900.4,689.6 897.6,689.5 C896.2,689.5 896.6,690.3 899.3,692.9 C904.1,697.4 906.9,704 907.6,712.6 L908.2,719.7 L903.3,719 C891.6,717.4 883.1,713.5 880.2,708.2 C879,706 879,706.1 878.9,708.9 C878.9,710.8 880,712.8 882.3,715.1 C886.2,719 885.5,719.4 880,716.6 C875.7,714.3 874.5,713.1 871.9,707.9 C870.3,704.7 870,704.4 869.9,706.3 C869.9,710.3 872.7,715.4 876.1,717.6 L879.4,719.7 L875.9,719.1 C868.7,717.8 862.9,711 862.9,703.8 C862.9,700.5 861.3,696.2 856.3,685.8 C851.9,676.6 849.5,672.6 848.9,673.5 C848.5,674.2 847.4,674.5 846.5,674.2 C845.5,673.8 844.9,674.1 844.9,675.1 C844.9,676.1 844.3,676.5 843.4,676.1 C842.2,675.7 842,676.1 842.5,678.3 C844.5,686 851.3,703.3 853.4,705.5 C858.8,711.3 860.3,718.3 857.5,724.9 C855.3,730.2 854.4,729.8 854.4,723.4 C854.4,718.6 854,717.1 852.1,715.3 L849.8,713 L851,716.3 C852.4,720.5 851.7,729.5 849.7,732.3 C848.3,734.4 848.2,734.3 848.6,729.8 C849,726 848.7,724.5 847.1,722.5 L845,720 L845.6,724.1 C845.9,726.7 845.5,730.1 844.5,733.1 C842.7,738.4 835.1,749.5 833.2,749.5 C832.6,749.5 830.5,747.3 828.5,744.6 Z" id="Path"></path>
            </g>
        </g>
    </g>
</svg>